<mxfile host="Electron" modified="2025-04-07T11:59:59.642Z" agent="Mozilla/5.0 (Windows NT 10.0; Win64; x64) AppleWebKit/537.36 (KHTML, like Gecko) draw.io/24.5.3 Chrome/124.0.6367.207 Electron/30.0.6 Safari/537.36" etag="JH4E0hZrT3Yawk-scGfu" version="24.5.3" type="device">
  <diagram name="Page-1" id="7X-R80Q5URdf1TgEHxfu">
    <mxGraphModel dx="1050" dy="621" grid="1" gridSize="10" guides="1" tooltips="1" connect="1" arrows="1" fold="1" page="1" pageScale="1" pageWidth="850" pageHeight="1100" math="0" shadow="0">
      <root>
        <mxCell id="0" />
        <mxCell id="1" parent="0" />
        <mxCell id="3DLeBJEjjfiLJF8wQBnB-18" style="edgeStyle=orthogonalEdgeStyle;rounded=0;orthogonalLoop=1;jettySize=auto;html=1;exitX=0.5;exitY=0;exitDx=0;exitDy=0;entryX=0.75;entryY=0;entryDx=0;entryDy=0;" edge="1" parent="1" source="i6Cz08wEIOyxmJ7STcuh-1" target="i6Cz08wEIOyxmJ7STcuh-2">
          <mxGeometry relative="1" as="geometry">
            <Array as="points">
              <mxPoint x="205" y="10" />
              <mxPoint x="385" y="10" />
            </Array>
          </mxGeometry>
        </mxCell>
        <mxCell id="3DLeBJEjjfiLJF8wQBnB-82" value="[2, 4608]" style="edgeLabel;html=1;align=center;verticalAlign=middle;resizable=0;points=[];" vertex="1" connectable="0" parent="3DLeBJEjjfiLJF8wQBnB-18">
          <mxGeometry x="-0.4581" y="1" relative="1" as="geometry">
            <mxPoint as="offset" />
          </mxGeometry>
        </mxCell>
        <mxCell id="3DLeBJEjjfiLJF8wQBnB-44" style="edgeStyle=orthogonalEdgeStyle;rounded=0;orthogonalLoop=1;jettySize=auto;html=1;exitX=0.75;exitY=1;exitDx=0;exitDy=0;startArrow=classic;startFill=1;endArrow=oval;endFill=0;" edge="1" parent="1" source="i6Cz08wEIOyxmJ7STcuh-1">
          <mxGeometry relative="1" as="geometry">
            <mxPoint x="120" y="200" as="targetPoint" />
          </mxGeometry>
        </mxCell>
        <mxCell id="3DLeBJEjjfiLJF8wQBnB-66" value="[2, 4608]" style="edgeLabel;html=1;align=center;verticalAlign=middle;resizable=0;points=[];" vertex="1" connectable="0" parent="3DLeBJEjjfiLJF8wQBnB-44">
          <mxGeometry x="0.3249" relative="1" as="geometry">
            <mxPoint x="8" as="offset" />
          </mxGeometry>
        </mxCell>
        <mxCell id="3DLeBJEjjfiLJF8wQBnB-47" style="edgeStyle=orthogonalEdgeStyle;rounded=0;orthogonalLoop=1;jettySize=auto;html=1;exitX=0.25;exitY=1;exitDx=0;exitDy=0;startArrow=classic;startFill=1;endArrow=oval;endFill=1;" edge="1" parent="1" source="i6Cz08wEIOyxmJ7STcuh-1">
          <mxGeometry relative="1" as="geometry">
            <mxPoint x="70" y="160" as="targetPoint" />
          </mxGeometry>
        </mxCell>
        <mxCell id="3DLeBJEjjfiLJF8wQBnB-61" value="[32]" style="edgeLabel;html=1;align=center;verticalAlign=middle;resizable=0;points=[];" vertex="1" connectable="0" parent="3DLeBJEjjfiLJF8wQBnB-47">
          <mxGeometry x="0.1517" y="3" relative="1" as="geometry">
            <mxPoint x="-25" y="-3" as="offset" />
          </mxGeometry>
        </mxCell>
        <mxCell id="i6Cz08wEIOyxmJ7STcuh-1" value="CT03&lt;div&gt;[scale]&lt;/div&gt;" style="rounded=0;whiteSpace=wrap;html=1;fillColor=#f8cecc;strokeColor=#b85450;" parent="1" vertex="1">
          <mxGeometry x="162" y="39.900000000000006" width="80" height="80" as="geometry" />
        </mxCell>
        <mxCell id="3DLeBJEjjfiLJF8wQBnB-17" style="edgeStyle=orthogonalEdgeStyle;rounded=0;orthogonalLoop=1;jettySize=auto;html=1;exitX=0.5;exitY=1;exitDx=0;exitDy=0;entryX=0.75;entryY=0;entryDx=0;entryDy=0;" edge="1" parent="1" source="i6Cz08wEIOyxmJ7STcuh-2" target="i6Cz08wEIOyxmJ7STcuh-6">
          <mxGeometry relative="1" as="geometry" />
        </mxCell>
        <mxCell id="3DLeBJEjjfiLJF8wQBnB-85" value="[2, 4608]" style="edgeLabel;html=1;align=center;verticalAlign=middle;resizable=0;points=[];" vertex="1" connectable="0" parent="3DLeBJEjjfiLJF8wQBnB-17">
          <mxGeometry x="-0.558" y="-2" relative="1" as="geometry">
            <mxPoint as="offset" />
          </mxGeometry>
        </mxCell>
        <mxCell id="i6Cz08wEIOyxmJ7STcuh-2" value="CT13&lt;div&gt;[add]&lt;/div&gt;" style="rounded=0;whiteSpace=wrap;html=1;fillColor=#ffe6cc;strokeColor=#d79b00;" parent="1" vertex="1">
          <mxGeometry x="321" y="39.900000000000006" width="80" height="80" as="geometry" />
        </mxCell>
        <mxCell id="3DLeBJEjjfiLJF8wQBnB-53" style="edgeStyle=orthogonalEdgeStyle;rounded=0;orthogonalLoop=1;jettySize=auto;html=1;exitX=0.75;exitY=1;exitDx=0;exitDy=0;entryX=0.75;entryY=0;entryDx=0;entryDy=0;" edge="1" parent="1" source="i6Cz08wEIOyxmJ7STcuh-3" target="i6Cz08wEIOyxmJ7STcuh-7">
          <mxGeometry relative="1" as="geometry" />
        </mxCell>
        <mxCell id="3DLeBJEjjfiLJF8wQBnB-88" value="[2, 4608]" style="edgeLabel;html=1;align=center;verticalAlign=middle;resizable=0;points=[];" vertex="1" connectable="0" parent="3DLeBJEjjfiLJF8wQBnB-53">
          <mxGeometry x="-0.0975" y="-1" relative="1" as="geometry">
            <mxPoint as="offset" />
          </mxGeometry>
        </mxCell>
        <mxCell id="i6Cz08wEIOyxmJ7STcuh-3" value="CT23&lt;div&gt;[cos]&lt;/div&gt;" style="rounded=0;whiteSpace=wrap;html=1;fillColor=#d5e8d4;strokeColor=#82b366;" parent="1" vertex="1">
          <mxGeometry x="480" y="39.900000000000006" width="80" height="80" as="geometry" />
        </mxCell>
        <mxCell id="3DLeBJEjjfiLJF8wQBnB-54" style="edgeStyle=orthogonalEdgeStyle;rounded=0;orthogonalLoop=1;jettySize=auto;html=1;exitX=0.75;exitY=1;exitDx=0;exitDy=0;entryX=0.75;entryY=0;entryDx=0;entryDy=0;" edge="1" parent="1" source="i6Cz08wEIOyxmJ7STcuh-4" target="i6Cz08wEIOyxmJ7STcuh-8">
          <mxGeometry relative="1" as="geometry" />
        </mxCell>
        <mxCell id="3DLeBJEjjfiLJF8wQBnB-89" value="[2, 4608]" style="edgeLabel;html=1;align=center;verticalAlign=middle;resizable=0;points=[];" vertex="1" connectable="0" parent="3DLeBJEjjfiLJF8wQBnB-54">
          <mxGeometry x="-0.0975" y="-1" relative="1" as="geometry">
            <mxPoint as="offset" />
          </mxGeometry>
        </mxCell>
        <mxCell id="i6Cz08wEIOyxmJ7STcuh-4" value="CT33&lt;div&gt;[sin]&lt;/div&gt;" style="rounded=0;whiteSpace=wrap;html=1;fillColor=#d5e8d4;strokeColor=#82b366;" parent="1" vertex="1">
          <mxGeometry x="640" y="39.900000000000006" width="80" height="80" as="geometry" />
        </mxCell>
        <mxCell id="3DLeBJEjjfiLJF8wQBnB-19" style="edgeStyle=orthogonalEdgeStyle;rounded=0;orthogonalLoop=1;jettySize=auto;html=1;exitX=0.5;exitY=0;exitDx=0;exitDy=0;entryX=0.25;entryY=0;entryDx=0;entryDy=0;" edge="1" parent="1" source="i6Cz08wEIOyxmJ7STcuh-5" target="i6Cz08wEIOyxmJ7STcuh-2">
          <mxGeometry relative="1" as="geometry">
            <Array as="points">
              <mxPoint x="202" y="170" />
              <mxPoint x="280" y="170" />
              <mxPoint x="280" y="20" />
              <mxPoint x="341" y="20" />
            </Array>
          </mxGeometry>
        </mxCell>
        <mxCell id="3DLeBJEjjfiLJF8wQBnB-83" value="[2, 4608]" style="edgeLabel;html=1;align=center;verticalAlign=middle;resizable=0;points=[];" vertex="1" connectable="0" parent="3DLeBJEjjfiLJF8wQBnB-19">
          <mxGeometry x="-0.6122" relative="1" as="geometry">
            <mxPoint as="offset" />
          </mxGeometry>
        </mxCell>
        <mxCell id="3DLeBJEjjfiLJF8wQBnB-45" style="edgeStyle=orthogonalEdgeStyle;rounded=0;orthogonalLoop=1;jettySize=auto;html=1;exitX=0.25;exitY=1;exitDx=0;exitDy=0;startArrow=classic;startFill=1;endArrow=oval;endFill=1;" edge="1" parent="1" source="i6Cz08wEIOyxmJ7STcuh-5">
          <mxGeometry relative="1" as="geometry">
            <mxPoint x="70" y="320" as="targetPoint" />
          </mxGeometry>
        </mxCell>
        <mxCell id="3DLeBJEjjfiLJF8wQBnB-60" value="[32]" style="edgeLabel;html=1;align=center;verticalAlign=middle;resizable=0;points=[];" vertex="1" connectable="0" parent="3DLeBJEjjfiLJF8wQBnB-45">
          <mxGeometry x="0.244" relative="1" as="geometry">
            <mxPoint x="-18" as="offset" />
          </mxGeometry>
        </mxCell>
        <mxCell id="3DLeBJEjjfiLJF8wQBnB-46" style="edgeStyle=orthogonalEdgeStyle;rounded=0;orthogonalLoop=1;jettySize=auto;html=1;exitX=0.75;exitY=1;exitDx=0;exitDy=0;startArrow=classic;startFill=1;endArrow=oval;endFill=0;" edge="1" parent="1" source="i6Cz08wEIOyxmJ7STcuh-5">
          <mxGeometry relative="1" as="geometry">
            <mxPoint x="110" y="350" as="targetPoint" />
          </mxGeometry>
        </mxCell>
        <mxCell id="3DLeBJEjjfiLJF8wQBnB-80" value="[2, 4608]" style="edgeLabel;html=1;align=center;verticalAlign=middle;resizable=0;points=[];" vertex="1" connectable="0" parent="3DLeBJEjjfiLJF8wQBnB-46">
          <mxGeometry x="0.2588" y="1" relative="1" as="geometry">
            <mxPoint as="offset" />
          </mxGeometry>
        </mxCell>
        <mxCell id="i6Cz08wEIOyxmJ7STcuh-5" value="CT02&lt;div&gt;[scale]&lt;/div&gt;" style="rounded=0;whiteSpace=wrap;html=1;fillColor=#f8cecc;strokeColor=#b85450;" parent="1" vertex="1">
          <mxGeometry x="162" y="199.89999999999998" width="80" height="80" as="geometry" />
        </mxCell>
        <mxCell id="3DLeBJEjjfiLJF8wQBnB-36" style="edgeStyle=orthogonalEdgeStyle;rounded=0;orthogonalLoop=1;jettySize=auto;html=1;exitX=0.5;exitY=1;exitDx=0;exitDy=0;entryX=0.75;entryY=0;entryDx=0;entryDy=0;" edge="1" parent="1" source="i6Cz08wEIOyxmJ7STcuh-6" target="i6Cz08wEIOyxmJ7STcuh-10">
          <mxGeometry relative="1" as="geometry" />
        </mxCell>
        <mxCell id="3DLeBJEjjfiLJF8wQBnB-86" value="[2, 4608]" style="edgeLabel;html=1;align=center;verticalAlign=middle;resizable=0;points=[];" vertex="1" connectable="0" parent="3DLeBJEjjfiLJF8wQBnB-36">
          <mxGeometry x="-0.638" y="-2" relative="1" as="geometry">
            <mxPoint as="offset" />
          </mxGeometry>
        </mxCell>
        <mxCell id="i6Cz08wEIOyxmJ7STcuh-6" value="CT12&lt;div&gt;[add]&lt;/div&gt;" style="rounded=0;whiteSpace=wrap;html=1;fillColor=#ffe6cc;strokeColor=#d79b00;" parent="1" vertex="1">
          <mxGeometry x="321" y="199.89999999999998" width="80" height="80" as="geometry" />
        </mxCell>
        <mxCell id="3DLeBJEjjfiLJF8wQBnB-27" style="edgeStyle=orthogonalEdgeStyle;rounded=0;orthogonalLoop=1;jettySize=auto;html=1;exitX=0.5;exitY=1;exitDx=0;exitDy=0;entryX=0.25;entryY=0;entryDx=0;entryDy=0;" edge="1" parent="1" source="i6Cz08wEIOyxmJ7STcuh-7" target="i6Cz08wEIOyxmJ7STcuh-11">
          <mxGeometry relative="1" as="geometry" />
        </mxCell>
        <mxCell id="3DLeBJEjjfiLJF8wQBnB-69" value="[4608]" style="edgeLabel;html=1;align=center;verticalAlign=middle;resizable=0;points=[];" vertex="1" connectable="0" parent="3DLeBJEjjfiLJF8wQBnB-27">
          <mxGeometry x="0.462" relative="1" as="geometry">
            <mxPoint as="offset" />
          </mxGeometry>
        </mxCell>
        <mxCell id="3DLeBJEjjfiLJF8wQBnB-28" style="edgeStyle=orthogonalEdgeStyle;rounded=0;orthogonalLoop=1;jettySize=auto;html=1;exitX=0.5;exitY=1;exitDx=0;exitDy=0;entryX=0.75;entryY=0;entryDx=0;entryDy=0;" edge="1" parent="1" source="i6Cz08wEIOyxmJ7STcuh-7" target="i6Cz08wEIOyxmJ7STcuh-11">
          <mxGeometry relative="1" as="geometry" />
        </mxCell>
        <mxCell id="3DLeBJEjjfiLJF8wQBnB-70" value="[4608]" style="edgeLabel;html=1;align=center;verticalAlign=middle;resizable=0;points=[];" vertex="1" connectable="0" parent="3DLeBJEjjfiLJF8wQBnB-28">
          <mxGeometry x="0.502" y="3" relative="1" as="geometry">
            <mxPoint as="offset" />
          </mxGeometry>
        </mxCell>
        <mxCell id="3DLeBJEjjfiLJF8wQBnB-56" style="edgeStyle=orthogonalEdgeStyle;rounded=0;orthogonalLoop=1;jettySize=auto;html=1;exitX=0.25;exitY=0;exitDx=0;exitDy=0;startArrow=classic;startFill=1;endArrow=diamond;endFill=1;" edge="1" parent="1" source="i6Cz08wEIOyxmJ7STcuh-7">
          <mxGeometry relative="1" as="geometry">
            <mxPoint x="500" y="160" as="targetPoint" />
          </mxGeometry>
        </mxCell>
        <mxCell id="i6Cz08wEIOyxmJ7STcuh-7" value="CT22&lt;div&gt;[mult]&lt;/div&gt;" style="rounded=0;whiteSpace=wrap;html=1;fillColor=#b0e3e6;strokeColor=#0e8088;" parent="1" vertex="1">
          <mxGeometry x="480" y="199.89999999999998" width="80" height="80" as="geometry" />
        </mxCell>
        <mxCell id="3DLeBJEjjfiLJF8wQBnB-29" style="edgeStyle=orthogonalEdgeStyle;rounded=0;orthogonalLoop=1;jettySize=auto;html=1;exitX=0.5;exitY=1;exitDx=0;exitDy=0;entryX=0.25;entryY=0;entryDx=0;entryDy=0;" edge="1" parent="1" source="i6Cz08wEIOyxmJ7STcuh-8" target="i6Cz08wEIOyxmJ7STcuh-12">
          <mxGeometry relative="1" as="geometry" />
        </mxCell>
        <mxCell id="3DLeBJEjjfiLJF8wQBnB-71" value="[4608]" style="edgeLabel;html=1;align=center;verticalAlign=middle;resizable=0;points=[];" vertex="1" connectable="0" parent="3DLeBJEjjfiLJF8wQBnB-29">
          <mxGeometry x="0.542" relative="1" as="geometry">
            <mxPoint as="offset" />
          </mxGeometry>
        </mxCell>
        <mxCell id="3DLeBJEjjfiLJF8wQBnB-30" style="edgeStyle=orthogonalEdgeStyle;rounded=0;orthogonalLoop=1;jettySize=auto;html=1;exitX=0.5;exitY=1;exitDx=0;exitDy=0;entryX=0.75;entryY=0;entryDx=0;entryDy=0;" edge="1" parent="1" source="i6Cz08wEIOyxmJ7STcuh-8" target="i6Cz08wEIOyxmJ7STcuh-12">
          <mxGeometry relative="1" as="geometry" />
        </mxCell>
        <mxCell id="3DLeBJEjjfiLJF8wQBnB-72" value="[4608]" style="edgeLabel;html=1;align=center;verticalAlign=middle;resizable=0;points=[];" vertex="1" connectable="0" parent="3DLeBJEjjfiLJF8wQBnB-30">
          <mxGeometry x="0.522" relative="1" as="geometry">
            <mxPoint as="offset" />
          </mxGeometry>
        </mxCell>
        <mxCell id="3DLeBJEjjfiLJF8wQBnB-55" style="edgeStyle=orthogonalEdgeStyle;rounded=0;orthogonalLoop=1;jettySize=auto;html=1;exitX=0.25;exitY=0;exitDx=0;exitDy=0;startArrow=classic;startFill=1;endArrow=diamond;endFill=1;" edge="1" parent="1" source="i6Cz08wEIOyxmJ7STcuh-8">
          <mxGeometry relative="1" as="geometry">
            <mxPoint x="660" y="160" as="targetPoint" />
          </mxGeometry>
        </mxCell>
        <mxCell id="i6Cz08wEIOyxmJ7STcuh-8" value="CT32&lt;div&gt;[mult]&lt;/div&gt;" style="rounded=0;whiteSpace=wrap;html=1;fillColor=#b0e3e6;strokeColor=#0e8088;" parent="1" vertex="1">
          <mxGeometry x="640" y="199.89999999999998" width="80" height="80" as="geometry" />
        </mxCell>
        <mxCell id="3DLeBJEjjfiLJF8wQBnB-16" style="edgeStyle=orthogonalEdgeStyle;rounded=0;orthogonalLoop=1;jettySize=auto;html=1;exitX=0.5;exitY=0;exitDx=0;exitDy=0;entryX=0.25;entryY=0;entryDx=0;entryDy=0;" edge="1" parent="1" source="i6Cz08wEIOyxmJ7STcuh-9" target="i6Cz08wEIOyxmJ7STcuh-6">
          <mxGeometry relative="1" as="geometry">
            <Array as="points">
              <mxPoint x="202" y="330" />
              <mxPoint x="280" y="330" />
              <mxPoint x="280" y="180" />
              <mxPoint x="341" y="180" />
            </Array>
          </mxGeometry>
        </mxCell>
        <mxCell id="3DLeBJEjjfiLJF8wQBnB-84" value="[2, 4608]" style="edgeLabel;html=1;align=center;verticalAlign=middle;resizable=0;points=[];" vertex="1" connectable="0" parent="3DLeBJEjjfiLJF8wQBnB-16">
          <mxGeometry x="-0.6299" y="3" relative="1" as="geometry">
            <mxPoint as="offset" />
          </mxGeometry>
        </mxCell>
        <mxCell id="3DLeBJEjjfiLJF8wQBnB-48" style="edgeStyle=orthogonalEdgeStyle;rounded=0;orthogonalLoop=1;jettySize=auto;html=1;exitX=0.25;exitY=1;exitDx=0;exitDy=0;startArrow=classic;startFill=1;endArrow=oval;endFill=1;" edge="1" parent="1" source="i6Cz08wEIOyxmJ7STcuh-9">
          <mxGeometry relative="1" as="geometry">
            <mxPoint x="70" y="490" as="targetPoint" />
          </mxGeometry>
        </mxCell>
        <mxCell id="3DLeBJEjjfiLJF8wQBnB-59" value="[32]" style="edgeLabel;html=1;align=center;verticalAlign=middle;resizable=0;points=[];" vertex="1" connectable="0" parent="3DLeBJEjjfiLJF8wQBnB-48">
          <mxGeometry x="0.3403" y="-1" relative="1" as="geometry">
            <mxPoint x="-9" as="offset" />
          </mxGeometry>
        </mxCell>
        <mxCell id="3DLeBJEjjfiLJF8wQBnB-49" style="edgeStyle=orthogonalEdgeStyle;rounded=0;orthogonalLoop=1;jettySize=auto;html=1;exitX=0.75;exitY=1;exitDx=0;exitDy=0;startArrow=classic;startFill=1;endArrow=oval;endFill=0;" edge="1" parent="1" source="i6Cz08wEIOyxmJ7STcuh-9">
          <mxGeometry relative="1" as="geometry">
            <mxPoint x="110" y="520" as="targetPoint" />
          </mxGeometry>
        </mxCell>
        <mxCell id="3DLeBJEjjfiLJF8wQBnB-81" value="[2, 4608]" style="edgeLabel;html=1;align=center;verticalAlign=middle;resizable=0;points=[];" vertex="1" connectable="0" parent="3DLeBJEjjfiLJF8wQBnB-49">
          <mxGeometry x="0.2244" relative="1" as="geometry">
            <mxPoint as="offset" />
          </mxGeometry>
        </mxCell>
        <mxCell id="i6Cz08wEIOyxmJ7STcuh-9" value="CT01&lt;div&gt;[scale]&lt;/div&gt;" style="rounded=0;whiteSpace=wrap;html=1;fillColor=#f8cecc;strokeColor=#b85450;" parent="1" vertex="1">
          <mxGeometry x="162" y="359.9" width="80" height="80" as="geometry" />
        </mxCell>
        <mxCell id="3DLeBJEjjfiLJF8wQBnB-21" style="edgeStyle=orthogonalEdgeStyle;rounded=0;orthogonalLoop=1;jettySize=auto;html=1;exitX=0.5;exitY=1;exitDx=0;exitDy=0;entryX=0.5;entryY=0;entryDx=0;entryDy=0;" edge="1" parent="1" source="i6Cz08wEIOyxmJ7STcuh-10" target="i6Cz08wEIOyxmJ7STcuh-3">
          <mxGeometry relative="1" as="geometry" />
        </mxCell>
        <mxCell id="3DLeBJEjjfiLJF8wQBnB-22" style="edgeStyle=orthogonalEdgeStyle;rounded=0;orthogonalLoop=1;jettySize=auto;html=1;exitX=0.5;exitY=1;exitDx=0;exitDy=0;entryX=0.5;entryY=0;entryDx=0;entryDy=0;" edge="1" parent="1" source="i6Cz08wEIOyxmJ7STcuh-10" target="i6Cz08wEIOyxmJ7STcuh-4">
          <mxGeometry relative="1" as="geometry">
            <Array as="points">
              <mxPoint x="361" y="460" />
              <mxPoint x="440" y="460" />
              <mxPoint x="440" y="20" />
              <mxPoint x="680" y="20" />
            </Array>
          </mxGeometry>
        </mxCell>
        <mxCell id="3DLeBJEjjfiLJF8wQBnB-87" value="[2, 4608]" style="edgeLabel;html=1;align=center;verticalAlign=middle;resizable=0;points=[];" vertex="1" connectable="0" parent="3DLeBJEjjfiLJF8wQBnB-22">
          <mxGeometry x="-0.8851" y="-1" relative="1" as="geometry">
            <mxPoint as="offset" />
          </mxGeometry>
        </mxCell>
        <mxCell id="3DLeBJEjjfiLJF8wQBnB-40" style="edgeStyle=orthogonalEdgeStyle;rounded=0;orthogonalLoop=1;jettySize=auto;html=1;exitX=0.25;exitY=0;exitDx=0;exitDy=0;startArrow=classic;startFill=1;endArrow=box;endFill=0;" edge="1" parent="1" source="i6Cz08wEIOyxmJ7STcuh-10">
          <mxGeometry relative="1" as="geometry">
            <mxPoint x="341" y="320" as="targetPoint" />
          </mxGeometry>
        </mxCell>
        <mxCell id="i6Cz08wEIOyxmJ7STcuh-10" value="CT11&lt;div&gt;[scale]&lt;/div&gt;" style="rounded=0;whiteSpace=wrap;html=1;fillColor=#fff2cc;strokeColor=#d6b656;" parent="1" vertex="1">
          <mxGeometry x="321" y="359.9" width="80" height="80" as="geometry" />
        </mxCell>
        <mxCell id="3DLeBJEjjfiLJF8wQBnB-32" style="edgeStyle=orthogonalEdgeStyle;rounded=0;orthogonalLoop=1;jettySize=auto;html=1;exitX=0.5;exitY=1;exitDx=0;exitDy=0;entryX=0.25;entryY=0;entryDx=0;entryDy=0;" edge="1" parent="1" source="i6Cz08wEIOyxmJ7STcuh-11" target="i6Cz08wEIOyxmJ7STcuh-16">
          <mxGeometry relative="1" as="geometry" />
        </mxCell>
        <mxCell id="3DLeBJEjjfiLJF8wQBnB-90" value="[4608]" style="edgeLabel;html=1;align=center;verticalAlign=middle;resizable=0;points=[];" vertex="1" connectable="0" parent="3DLeBJEjjfiLJF8wQBnB-32">
          <mxGeometry x="-0.8264" y="-1" relative="1" as="geometry">
            <mxPoint as="offset" />
          </mxGeometry>
        </mxCell>
        <mxCell id="i6Cz08wEIOyxmJ7STcuh-11" value="CT21&lt;div&gt;[add]&lt;/div&gt;" style="rounded=0;whiteSpace=wrap;html=1;fillColor=#b1ddf0;strokeColor=#10739e;" parent="1" vertex="1">
          <mxGeometry x="480" y="359.9" width="80" height="80" as="geometry" />
        </mxCell>
        <mxCell id="3DLeBJEjjfiLJF8wQBnB-33" style="edgeStyle=orthogonalEdgeStyle;rounded=0;orthogonalLoop=1;jettySize=auto;html=1;exitX=0.5;exitY=1;exitDx=0;exitDy=0;entryX=0.75;entryY=0;entryDx=0;entryDy=0;" edge="1" parent="1" source="i6Cz08wEIOyxmJ7STcuh-12" target="i6Cz08wEIOyxmJ7STcuh-16">
          <mxGeometry relative="1" as="geometry" />
        </mxCell>
        <mxCell id="3DLeBJEjjfiLJF8wQBnB-91" value="[4608]" style="edgeLabel;html=1;align=center;verticalAlign=middle;resizable=0;points=[];" vertex="1" connectable="0" parent="3DLeBJEjjfiLJF8wQBnB-33">
          <mxGeometry x="-0.678" y="-1" relative="1" as="geometry">
            <mxPoint as="offset" />
          </mxGeometry>
        </mxCell>
        <mxCell id="i6Cz08wEIOyxmJ7STcuh-12" value="CT31&lt;div&gt;[add]&lt;/div&gt;" style="rounded=0;whiteSpace=wrap;html=1;fillColor=#b1ddf0;strokeColor=#10739e;" parent="1" vertex="1">
          <mxGeometry x="640" y="359.9" width="80" height="80" as="geometry" />
        </mxCell>
        <mxCell id="i6Cz08wEIOyxmJ7STcuh-13" value="CT00" style="rounded=0;whiteSpace=wrap;html=1;" parent="1" vertex="1">
          <mxGeometry x="162" y="519.9000000000001" width="80" height="80" as="geometry" />
        </mxCell>
        <mxCell id="i6Cz08wEIOyxmJ7STcuh-14" value="CT10" style="rounded=0;whiteSpace=wrap;html=1;" parent="1" vertex="1">
          <mxGeometry x="321" y="519.9000000000001" width="80" height="80" as="geometry" />
        </mxCell>
        <mxCell id="3DLeBJEjjfiLJF8wQBnB-35" style="edgeStyle=orthogonalEdgeStyle;rounded=0;orthogonalLoop=1;jettySize=auto;html=1;exitX=0.5;exitY=1;exitDx=0;exitDy=0;entryX=1;entryY=0;entryDx=0;entryDy=0;" edge="1" parent="1" source="i6Cz08wEIOyxmJ7STcuh-15" target="i6Cz08wEIOyxmJ7STcuh-24">
          <mxGeometry relative="1" as="geometry">
            <Array as="points">
              <mxPoint x="520" y="610" />
              <mxPoint x="590" y="610" />
              <mxPoint x="590" y="852" />
            </Array>
          </mxGeometry>
        </mxCell>
        <mxCell id="3DLeBJEjjfiLJF8wQBnB-93" value="[32]" style="edgeLabel;html=1;align=center;verticalAlign=middle;resizable=0;points=[];" vertex="1" connectable="0" parent="3DLeBJEjjfiLJF8wQBnB-35">
          <mxGeometry x="-0.6769" y="-2" relative="1" as="geometry">
            <mxPoint as="offset" />
          </mxGeometry>
        </mxCell>
        <mxCell id="i6Cz08wEIOyxmJ7STcuh-15" value="CT20&lt;div&gt;[mean]&lt;/div&gt;" style="rounded=0;whiteSpace=wrap;html=1;fillColor=#e1d5e7;strokeColor=#9673a6;" parent="1" vertex="1">
          <mxGeometry x="480" y="519.9000000000001" width="80" height="80" as="geometry" />
        </mxCell>
        <mxCell id="3DLeBJEjjfiLJF8wQBnB-34" style="edgeStyle=orthogonalEdgeStyle;rounded=0;orthogonalLoop=1;jettySize=auto;html=1;exitX=0.5;exitY=1;exitDx=0;exitDy=0;entryX=0.5;entryY=0;entryDx=0;entryDy=0;" edge="1" parent="1" source="i6Cz08wEIOyxmJ7STcuh-16" target="i6Cz08wEIOyxmJ7STcuh-15">
          <mxGeometry relative="1" as="geometry" />
        </mxCell>
        <mxCell id="3DLeBJEjjfiLJF8wQBnB-92" value="[4608]" style="edgeLabel;html=1;align=center;verticalAlign=middle;resizable=0;points=[];" vertex="1" connectable="0" parent="3DLeBJEjjfiLJF8wQBnB-34">
          <mxGeometry x="0.0744" y="1" relative="1" as="geometry">
            <mxPoint as="offset" />
          </mxGeometry>
        </mxCell>
        <mxCell id="i6Cz08wEIOyxmJ7STcuh-16" value="CT30&lt;div&gt;[sub]&lt;/div&gt;" style="rounded=0;whiteSpace=wrap;html=1;fillColor=#dae8fc;strokeColor=#6c8ebf;" parent="1" vertex="1">
          <mxGeometry x="640" y="519.9000000000001" width="80" height="80" as="geometry" />
        </mxCell>
        <mxCell id="3DLeBJEjjfiLJF8wQBnB-52" style="edgeStyle=orthogonalEdgeStyle;rounded=0;orthogonalLoop=1;jettySize=auto;html=1;exitX=0.5;exitY=0;exitDx=0;exitDy=0;endArrow=oval;endFill=1;" edge="1" parent="1" source="i6Cz08wEIOyxmJ7STcuh-18">
          <mxGeometry relative="1" as="geometry">
            <mxPoint x="202" y="630" as="targetPoint" />
          </mxGeometry>
        </mxCell>
        <mxCell id="3DLeBJEjjfiLJF8wQBnB-57" value="[pixel/32, 3, 32]&lt;div&gt;(distribute)&lt;/div&gt;" style="edgeLabel;html=1;align=center;verticalAlign=middle;resizable=0;points=[];" vertex="1" connectable="0" parent="3DLeBJEjjfiLJF8wQBnB-52">
          <mxGeometry x="-0.0517" relative="1" as="geometry">
            <mxPoint y="-3" as="offset" />
          </mxGeometry>
        </mxCell>
        <mxCell id="i6Cz08wEIOyxmJ7STcuh-18" value="MT0" style="shape=trapezoid;perimeter=trapezoidPerimeter;whiteSpace=wrap;html=1;fixedSize=1;direction=east;fillColor=#f5f5f5;strokeColor=#666666;gradientColor=#b3b3b3;" parent="1" vertex="1">
          <mxGeometry x="157" y="679.9000000000001" width="90" height="80" as="geometry" />
        </mxCell>
        <mxCell id="3DLeBJEjjfiLJF8wQBnB-51" style="edgeStyle=orthogonalEdgeStyle;rounded=0;orthogonalLoop=1;jettySize=auto;html=1;exitX=0.5;exitY=0;exitDx=0;exitDy=0;endArrow=oval;endFill=0;" edge="1" parent="1" source="i6Cz08wEIOyxmJ7STcuh-19">
          <mxGeometry relative="1" as="geometry">
            <mxPoint x="365" y="630" as="targetPoint" />
          </mxGeometry>
        </mxCell>
        <mxCell id="3DLeBJEjjfiLJF8wQBnB-63" value="[2, 3, 4608]&lt;div&gt;(distribute)&lt;/div&gt;" style="edgeLabel;html=1;align=center;verticalAlign=middle;resizable=0;points=[];" vertex="1" connectable="0" parent="3DLeBJEjjfiLJF8wQBnB-51">
          <mxGeometry x="0.0262" y="1" relative="1" as="geometry">
            <mxPoint as="offset" />
          </mxGeometry>
        </mxCell>
        <mxCell id="i6Cz08wEIOyxmJ7STcuh-19" value="MT1" style="shape=trapezoid;perimeter=trapezoidPerimeter;whiteSpace=wrap;html=1;fixedSize=1;direction=east;fillColor=#f5f5f5;strokeColor=#666666;gradientColor=#b3b3b3;" parent="1" vertex="1">
          <mxGeometry x="320" y="679.9000000000001" width="90" height="80" as="geometry" />
        </mxCell>
        <mxCell id="3DLeBJEjjfiLJF8wQBnB-50" style="edgeStyle=orthogonalEdgeStyle;rounded=0;orthogonalLoop=1;jettySize=auto;html=1;exitX=0.5;exitY=0;exitDx=0;exitDy=0;endArrow=diamond;endFill=1;" edge="1" parent="1" source="i6Cz08wEIOyxmJ7STcuh-20">
          <mxGeometry relative="1" as="geometry">
            <mxPoint x="525" y="630" as="targetPoint" />
          </mxGeometry>
        </mxCell>
        <mxCell id="3DLeBJEjjfiLJF8wQBnB-64" value="[2, 2, 4608]&lt;div&gt;(distribute)&lt;/div&gt;" style="edgeLabel;html=1;align=center;verticalAlign=middle;resizable=0;points=[];" vertex="1" connectable="0" parent="3DLeBJEjjfiLJF8wQBnB-50">
          <mxGeometry x="-0.5726" y="-1" relative="1" as="geometry">
            <mxPoint x="-1" y="-9" as="offset" />
          </mxGeometry>
        </mxCell>
        <mxCell id="i6Cz08wEIOyxmJ7STcuh-20" value="MT2" style="shape=trapezoid;perimeter=trapezoidPerimeter;whiteSpace=wrap;html=1;fixedSize=1;direction=east;fillColor=#f5f5f5;strokeColor=#666666;gradientColor=#b3b3b3;" parent="1" vertex="1">
          <mxGeometry x="480" y="679.9000000000001" width="90" height="80" as="geometry" />
        </mxCell>
        <mxCell id="i6Cz08wEIOyxmJ7STcuh-21" value="MT3" style="shape=trapezoid;perimeter=trapezoidPerimeter;whiteSpace=wrap;html=1;fixedSize=1;direction=east;fillColor=#f5f5f5;strokeColor=#666666;gradientColor=#b3b3b3;" parent="1" vertex="1">
          <mxGeometry x="640" y="679.9000000000001" width="90" height="80" as="geometry" />
        </mxCell>
        <mxCell id="3DLeBJEjjfiLJF8wQBnB-1" style="edgeStyle=orthogonalEdgeStyle;rounded=0;orthogonalLoop=1;jettySize=auto;html=1;exitX=0.5;exitY=1;exitDx=0;exitDy=0;startArrow=classic;startFill=1;endArrow=none;endFill=0;" edge="1" parent="1" source="i6Cz08wEIOyxmJ7STcuh-22">
          <mxGeometry relative="1" as="geometry">
            <mxPoint x="202" y="1000" as="targetPoint" />
          </mxGeometry>
        </mxCell>
        <mxCell id="3DLeBJEjjfiLJF8wQBnB-10" value="&lt;div&gt;lmn&lt;/div&gt;&lt;div&gt;[pixels/32, 3, 32]&lt;/div&gt;" style="edgeLabel;html=1;align=center;verticalAlign=middle;resizable=0;points=[];" vertex="1" connectable="0" parent="3DLeBJEjjfiLJF8wQBnB-1">
          <mxGeometry x="0.5938" y="2" relative="1" as="geometry">
            <mxPoint y="3" as="offset" />
          </mxGeometry>
        </mxCell>
        <mxCell id="3DLeBJEjjfiLJF8wQBnB-37" style="edgeStyle=orthogonalEdgeStyle;rounded=0;orthogonalLoop=1;jettySize=auto;html=1;exitX=0.5;exitY=0;exitDx=0;exitDy=0;entryX=0.5;entryY=1;entryDx=0;entryDy=0;" edge="1" parent="1" source="i6Cz08wEIOyxmJ7STcuh-22" target="i6Cz08wEIOyxmJ7STcuh-18">
          <mxGeometry relative="1" as="geometry" />
        </mxCell>
        <mxCell id="i6Cz08wEIOyxmJ7STcuh-22" value="IT0" style="ellipse;whiteSpace=wrap;html=1;aspect=fixed;fillColor=#f5f5f5;fontColor=#333333;strokeColor=#666666;" parent="1" vertex="1">
          <mxGeometry x="162" y="839.9000000000001" width="80" height="80" as="geometry" />
        </mxCell>
        <mxCell id="3DLeBJEjjfiLJF8wQBnB-2" style="edgeStyle=orthogonalEdgeStyle;rounded=0;orthogonalLoop=1;jettySize=auto;html=1;exitX=0.5;exitY=1;exitDx=0;exitDy=0;startArrow=classic;startFill=1;endArrow=none;endFill=0;" edge="1" parent="1" source="i6Cz08wEIOyxmJ7STcuh-23">
          <mxGeometry relative="1" as="geometry">
            <mxPoint x="365" y="1000" as="targetPoint" />
          </mxGeometry>
        </mxCell>
        <mxCell id="3DLeBJEjjfiLJF8wQBnB-11" value="baselines&lt;div&gt;[3, 9216]&lt;/div&gt;" style="edgeLabel;html=1;align=center;verticalAlign=middle;resizable=0;points=[];" vertex="1" connectable="0" parent="3DLeBJEjjfiLJF8wQBnB-2">
          <mxGeometry x="0.4204" y="1" relative="1" as="geometry">
            <mxPoint y="10" as="offset" />
          </mxGeometry>
        </mxCell>
        <mxCell id="3DLeBJEjjfiLJF8wQBnB-5" style="edgeStyle=orthogonalEdgeStyle;rounded=0;orthogonalLoop=1;jettySize=auto;html=1;exitX=0.5;exitY=0;exitDx=0;exitDy=0;entryX=0.5;entryY=1;entryDx=0;entryDy=0;" edge="1" parent="1" source="i6Cz08wEIOyxmJ7STcuh-23" target="i6Cz08wEIOyxmJ7STcuh-19">
          <mxGeometry relative="1" as="geometry" />
        </mxCell>
        <mxCell id="i6Cz08wEIOyxmJ7STcuh-23" value="IT1" style="ellipse;whiteSpace=wrap;html=1;aspect=fixed;fillColor=#f5f5f5;fontColor=#333333;strokeColor=#666666;" parent="1" vertex="1">
          <mxGeometry x="325" y="839.9000000000001" width="80" height="80" as="geometry" />
        </mxCell>
        <mxCell id="3DLeBJEjjfiLJF8wQBnB-3" style="edgeStyle=orthogonalEdgeStyle;rounded=0;orthogonalLoop=1;jettySize=auto;html=1;startArrow=classic;startFill=1;endArrow=none;endFill=0;exitX=0;exitY=0.5;exitDx=0;exitDy=0;" edge="1" parent="1" source="i6Cz08wEIOyxmJ7STcuh-24">
          <mxGeometry relative="1" as="geometry">
            <mxPoint x="525" y="1000" as="targetPoint" />
            <mxPoint x="525" y="920" as="sourcePoint" />
          </mxGeometry>
        </mxCell>
        <mxCell id="3DLeBJEjjfiLJF8wQBnB-12" value="visibilities&lt;div&gt;[2, 9216]&lt;/div&gt;" style="edgeLabel;html=1;align=center;verticalAlign=middle;resizable=0;points=[];" vertex="1" connectable="0" parent="3DLeBJEjjfiLJF8wQBnB-3">
          <mxGeometry x="0.3708" relative="1" as="geometry">
            <mxPoint x="18" y="30" as="offset" />
          </mxGeometry>
        </mxCell>
        <mxCell id="3DLeBJEjjfiLJF8wQBnB-6" style="edgeStyle=orthogonalEdgeStyle;rounded=0;orthogonalLoop=1;jettySize=auto;html=1;exitX=0;exitY=0;exitDx=0;exitDy=0;entryX=0.5;entryY=1;entryDx=0;entryDy=0;" edge="1" parent="1" source="i6Cz08wEIOyxmJ7STcuh-24" target="i6Cz08wEIOyxmJ7STcuh-20">
          <mxGeometry relative="1" as="geometry" />
        </mxCell>
        <mxCell id="3DLeBJEjjfiLJF8wQBnB-8" style="edgeStyle=orthogonalEdgeStyle;rounded=0;orthogonalLoop=1;jettySize=auto;html=1;exitX=1;exitY=0.5;exitDx=0;exitDy=0;" edge="1" parent="1" source="i6Cz08wEIOyxmJ7STcuh-24">
          <mxGeometry relative="1" as="geometry">
            <mxPoint x="600" y="1000" as="targetPoint" />
          </mxGeometry>
        </mxCell>
        <mxCell id="3DLeBJEjjfiLJF8wQBnB-9" value="out&lt;div&gt;[pixels/32, 32]&lt;/div&gt;" style="edgeLabel;html=1;align=center;verticalAlign=middle;resizable=0;points=[];" vertex="1" connectable="0" parent="3DLeBJEjjfiLJF8wQBnB-8">
          <mxGeometry x="0.6863" y="2" relative="1" as="geometry">
            <mxPoint y="-5" as="offset" />
          </mxGeometry>
        </mxCell>
        <mxCell id="i6Cz08wEIOyxmJ7STcuh-24" value="IT2" style="ellipse;whiteSpace=wrap;html=1;aspect=fixed;fillColor=#f5f5f5;fontColor=#333333;strokeColor=#666666;" parent="1" vertex="1">
          <mxGeometry x="485" y="839.9000000000001" width="80" height="80" as="geometry" />
        </mxCell>
        <mxCell id="3DLeBJEjjfiLJF8wQBnB-4" style="edgeStyle=orthogonalEdgeStyle;rounded=0;orthogonalLoop=1;jettySize=auto;html=1;exitX=0.5;exitY=1;exitDx=0;exitDy=0;startArrow=classic;startFill=1;endArrow=none;endFill=0;" edge="1" parent="1" source="i6Cz08wEIOyxmJ7STcuh-25">
          <mxGeometry relative="1" as="geometry">
            <mxPoint x="685" y="1000" as="targetPoint" />
          </mxGeometry>
        </mxCell>
        <mxCell id="3DLeBJEjjfiLJF8wQBnB-13" value="freq&lt;div&gt;[2]&lt;/div&gt;" style="edgeLabel;html=1;align=center;verticalAlign=middle;resizable=0;points=[];" vertex="1" connectable="0" parent="3DLeBJEjjfiLJF8wQBnB-4">
          <mxGeometry x="0.3215" y="-1" relative="1" as="geometry">
            <mxPoint y="14" as="offset" />
          </mxGeometry>
        </mxCell>
        <mxCell id="3DLeBJEjjfiLJF8wQBnB-39" style="edgeStyle=orthogonalEdgeStyle;rounded=0;orthogonalLoop=1;jettySize=auto;html=1;exitX=0.5;exitY=0;exitDx=0;exitDy=0;endArrow=box;endFill=0;" edge="1" parent="1" source="i6Cz08wEIOyxmJ7STcuh-25">
          <mxGeometry relative="1" as="geometry">
            <mxPoint x="685" y="780" as="targetPoint" />
          </mxGeometry>
        </mxCell>
        <mxCell id="3DLeBJEjjfiLJF8wQBnB-65" value="&lt;div&gt;[2]&lt;/div&gt;(broadcast)" style="edgeLabel;html=1;align=center;verticalAlign=middle;resizable=0;points=[];" vertex="1" connectable="0" parent="3DLeBJEjjfiLJF8wQBnB-39">
          <mxGeometry x="-0.1707" y="-2" relative="1" as="geometry">
            <mxPoint y="1" as="offset" />
          </mxGeometry>
        </mxCell>
        <mxCell id="i6Cz08wEIOyxmJ7STcuh-25" value="IT3" style="ellipse;whiteSpace=wrap;html=1;aspect=fixed;fillColor=#f5f5f5;fontColor=#333333;strokeColor=#666666;" parent="1" vertex="1">
          <mxGeometry x="645" y="839.9000000000001" width="80" height="80" as="geometry" />
        </mxCell>
      </root>
    </mxGraphModel>
  </diagram>
</mxfile>
